<svg width="25" height="21" viewBox="0 0 25 21" fill="none" xmlns="http://www.w3.org/2000/svg">
<path d="M16.3462 9.33376C15.4551 8.68096 14.6094 7.94121 13.8173 7.12184L9.63462 0.516409C9.50468 0.308038 9.32607 0.151924 9.12202 0.0683666C8.91798 -0.0151906 8.69793 -0.0223242 8.49049 0.047894C8.28306 0.118112 8.09784 0.262433 7.95891 0.462088C7.81999 0.661743 7.7338 0.907495 7.71154 1.16739H7.69231V4.66726H4.24808C4.12048 4.66785 3.99407 4.63762 3.8762 4.57833C3.75833 4.51904 3.65137 4.43189 3.56154 4.32194C3.56154 4.32194 2.88462 2.33401 1.92308 2.33401H0.961538C0.706523 2.33401 0.461951 2.45692 0.281628 2.67571C0.101305 2.89449 0 3.19123 0 3.50063V14.0003H10.5769C13.4615 14.0003 14.4231 16.3335 17.3077 16.3335H25V15.1669C25 11.667 18.3596 10.7197 16.3462 9.33376ZM16.3462 18.6668C15.3103 18.6313 14.2995 18.2721 13.4115 17.6238C12.2566 16.8106 10.9504 16.3666 9.61538 16.3335H0V19.8334C0 20.1428 0.101305 20.4395 0.281628 20.6583C0.461951 20.8771 0.706523 21 0.961538 21H8.65385C8.90886 21 9.15343 20.8771 9.33376 20.6583C9.51408 20.4395 9.61538 20.1428 9.61538 19.8334V18.6668C10.6512 18.7025 11.662 19.0617 12.55 19.7097C13.7049 20.5229 15.0111 20.9669 16.3462 21H24.0385C24.2935 21 24.538 20.8771 24.7184 20.6583C24.8987 20.4395 25 20.1428 25 19.8334V18.6668H16.3462Z" fill="black" fill-opacity="0.4"/>
</svg>
